<?xml version="1.0" encoding="UTF-8" standalone="no"?>
<!DOCTYPE svg PUBLIC "-//W3C//DTD SVG 1.1//EN"
 "http://www.w3.org/Graphics/SVG/1.1/DTD/svg11.dtd">
<!-- Generated by graphviz version 2.43.0 (0)
 -->
<!-- Title: day20 Pages: 1 -->
<svg width="1930pt" height="1340pt"
 viewBox="0.00 0.00 1930.00 1340.00" xmlns="http://www.w3.org/2000/svg" xmlns:xlink="http://www.w3.org/1999/xlink">
<g id="graph0" class="graph" transform="scale(1 1) rotate(0) translate(4 1336)">
<title>day20</title>
<polygon fill="white" stroke="transparent" points="-4,4 -4,-1336 1926,-1336 1926,4 -4,4"/>
<!-- bd -->
<g id="node1" class="node">
<title>bd</title>
<ellipse fill="none" stroke="black" cx="327" cy="-1314" rx="31.4" ry="18"/>
<text text-anchor="middle" x="327" y="-1310.3" font-family="Times,serif" font-size="14.00">%bd</text>
</g>
<!-- lg -->
<g id="node2" class="node">
<title>lg</title>
<ellipse fill="none" stroke="black" cx="270" cy="-1242" rx="28.7" ry="18"/>
<text text-anchor="middle" x="270" y="-1238.3" font-family="Times,serif" font-size="14.00">%lg</text>
</g>
<!-- bd&#45;&gt;lg -->
<g id="edge1" class="edge">
<title>bd&#45;&gt;lg</title>
<path fill="none" stroke="black" d="M314.35,-1297.46C306.9,-1288.31 297.32,-1276.55 288.98,-1266.31"/>
<polygon fill="black" stroke="black" points="291.64,-1264.04 282.61,-1258.49 286.22,-1268.46 291.64,-1264.04"/>
</g>
<!-- cm -->
<g id="node9" class="node">
<title>cm</title>
<ellipse fill="none" stroke="black" cx="270" cy="-1170" rx="32.49" ry="18"/>
<text text-anchor="middle" x="270" y="-1166.3" font-family="Times,serif" font-size="14.00">&amp;cm</text>
</g>
<!-- bd&#45;&gt;cm -->
<g id="edge2" class="edge">
<title>bd&#45;&gt;cm</title>
<path fill="none" stroke="black" d="M325.46,-1295.96C323.33,-1277.56 318.48,-1247.7 308,-1224 303.42,-1213.64 296.62,-1203.29 290.03,-1194.51"/>
<polygon fill="black" stroke="black" points="292.78,-1192.35 283.86,-1186.64 287.27,-1196.67 292.78,-1192.35"/>
</g>
<!-- lg&#45;&gt;cm -->
<g id="edge25" class="edge">
<title>lg&#45;&gt;cm</title>
<path fill="none" stroke="black" d="M270,-1223.7C270,-1215.98 270,-1206.71 270,-1198.11"/>
<polygon fill="black" stroke="black" points="273.5,-1198.1 270,-1188.1 266.5,-1198.1 273.5,-1198.1"/>
</g>
<!-- bh -->
<g id="node3" class="node">
<title>bh</title>
<ellipse fill="none" stroke="black" cx="701" cy="-810" rx="31.4" ry="18"/>
<text text-anchor="middle" x="701" y="-806.3" font-family="Times,serif" font-size="14.00">%bh</text>
</g>
<!-- lj -->
<g id="node14" class="node">
<title>lj</title>
<ellipse fill="none" stroke="black" cx="743" cy="-738" rx="27" ry="18"/>
<text text-anchor="middle" x="743" y="-734.3" font-family="Times,serif" font-size="14.00">%lj</text>
</g>
<!-- bh&#45;&gt;lj -->
<g id="edge7" class="edge">
<title>bh&#45;&gt;lj</title>
<path fill="none" stroke="black" d="M710.74,-792.76C715.88,-784.19 722.3,-773.49 728.06,-763.9"/>
<polygon fill="black" stroke="black" points="731.17,-765.52 733.31,-755.15 725.17,-761.92 731.17,-765.52"/>
</g>
<!-- zz -->
<g id="node4" class="node">
<title>zz</title>
<ellipse fill="none" stroke="black" cx="760" cy="-954" rx="28.7" ry="18"/>
<text text-anchor="middle" x="760" y="-950.3" font-family="Times,serif" font-size="14.00">&amp;zz</text>
</g>
<!-- zz&#45;&gt;bh -->
<g id="edge11" class="edge">
<title>zz&#45;&gt;bh</title>
<path fill="none" stroke="black" d="M753.12,-936.43C743,-912.09 724.02,-866.4 711.97,-837.4"/>
<polygon fill="black" stroke="black" points="715.09,-835.79 708.02,-827.9 708.63,-838.48 715.09,-835.79"/>
</g>
<!-- js -->
<g id="node5" class="node">
<title>js</title>
<ellipse fill="none" stroke="black" cx="1129" cy="-162" rx="27" ry="18"/>
<text text-anchor="middle" x="1129" y="-158.3" font-family="Times,serif" font-size="14.00">&amp;js</text>
</g>
<!-- zz&#45;&gt;js -->
<g id="edge12" class="edge">
<title>zz&#45;&gt;js</title>
<path fill="none" stroke="black" d="M731.32,-953.04C689.51,-951.55 611.74,-942.72 565,-900 533.86,-871.54 532,-853.19 532,-811 532,-811 532,-811 532,-305 532,-189.46 960.57,-167.77 1091.48,-163.84"/>
<polygon fill="black" stroke="black" points="1091.9,-167.33 1101.8,-163.55 1091.7,-160.33 1091.9,-167.33"/>
</g>
<!-- jk -->
<g id="node12" class="node">
<title>jk</title>
<ellipse fill="none" stroke="black" cx="761" cy="-594" rx="27.9" ry="18"/>
<text text-anchor="middle" x="761" y="-590.3" font-family="Times,serif" font-size="14.00">%jk</text>
</g>
<!-- zz&#45;&gt;jk -->
<g id="edge10" class="edge">
<title>zz&#45;&gt;jk</title>
<path fill="none" stroke="black" d="M743.34,-938.93C719.67,-917.74 677.38,-875.06 661,-828 633.4,-748.69 702.47,-658.18 739.46,-617.22"/>
<polygon fill="black" stroke="black" points="742.19,-619.43 746.39,-609.7 737.04,-614.68 742.19,-619.43"/>
</g>
<!-- th -->
<g id="node15" class="node">
<title>th</title>
<ellipse fill="none" stroke="black" cx="627" cy="-882" rx="29.5" ry="18"/>
<text text-anchor="middle" x="627" y="-878.3" font-family="Times,serif" font-size="14.00">%th</text>
</g>
<!-- zz&#45;&gt;th -->
<g id="edge8" class="edge">
<title>zz&#45;&gt;th</title>
<path fill="none" stroke="black" d="M738.63,-941.75C716.75,-930.24 682.54,-912.23 657.75,-899.18"/>
<polygon fill="black" stroke="black" points="659.24,-896.01 648.76,-894.45 655.98,-902.21 659.24,-896.01"/>
</g>
<!-- hr -->
<g id="node43" class="node">
<title>hr</title>
<ellipse fill="none" stroke="black" cx="760" cy="-1098" rx="29.8" ry="18"/>
<text text-anchor="middle" x="760" y="-1094.3" font-family="Times,serif" font-size="14.00">%hr</text>
</g>
<!-- zz&#45;&gt;hr -->
<g id="edge9" class="edge">
<title>zz&#45;&gt;hr</title>
<path fill="none" stroke="black" d="M764.55,-971.82C767.15,-996.05 767.44,-1041 765.44,-1069.93"/>
<polygon fill="black" stroke="black" points="761.93,-1069.89 764.55,-1080.15 768.9,-1070.49 761.93,-1069.89"/>
</g>
<!-- cl -->
<g id="node6" class="node">
<title>cl</title>
<ellipse fill="none" stroke="black" cx="1156" cy="-90" rx="27" ry="18"/>
<text text-anchor="middle" x="1156" y="-86.3" font-family="Times,serif" font-size="14.00">&amp;cl</text>
</g>
<!-- js&#45;&gt;cl -->
<g id="edge13" class="edge">
<title>js&#45;&gt;cl</title>
<path fill="none" stroke="black" d="M1135.4,-144.41C1138.51,-136.34 1142.33,-126.43 1145.83,-117.35"/>
<polygon fill="black" stroke="black" points="1149.13,-118.55 1149.46,-107.96 1142.6,-116.03 1149.13,-118.55"/>
</g>
<!-- rx -->
<g id="node59" class="node">
<title>rx</title>
<ellipse fill="none" stroke="black" cx="1156" cy="-18" rx="27" ry="18"/>
<text text-anchor="middle" x="1156" y="-14.3" font-family="Times,serif" font-size="14.00">rx</text>
</g>
<!-- cl&#45;&gt;rx -->
<g id="edge14" class="edge">
<title>cl&#45;&gt;rx</title>
<path fill="none" stroke="black" d="M1156,-71.7C1156,-63.98 1156,-54.71 1156,-46.11"/>
<polygon fill="black" stroke="black" points="1159.5,-46.1 1156,-36.1 1152.5,-46.1 1159.5,-46.1"/>
</g>
<!-- rn -->
<g id="node7" class="node">
<title>rn</title>
<ellipse fill="none" stroke="black" cx="1788" cy="-882" rx="29.8" ry="18"/>
<text text-anchor="middle" x="1788" y="-878.3" font-family="Times,serif" font-size="14.00">%rn</text>
</g>
<!-- ml -->
<g id="node39" class="node">
<title>ml</title>
<ellipse fill="none" stroke="black" cx="1788" cy="-810" rx="31.4" ry="18"/>
<text text-anchor="middle" x="1788" y="-806.3" font-family="Times,serif" font-size="14.00">%ml</text>
</g>
<!-- rn&#45;&gt;ml -->
<g id="edge15" class="edge">
<title>rn&#45;&gt;ml</title>
<path fill="none" stroke="black" d="M1788,-863.7C1788,-855.98 1788,-846.71 1788,-838.11"/>
<polygon fill="black" stroke="black" points="1791.5,-838.1 1788,-828.1 1784.5,-838.1 1791.5,-838.1"/>
</g>
<!-- ks -->
<g id="node8" class="node">
<title>ks</title>
<ellipse fill="none" stroke="black" cx="1657" cy="-594" rx="29.8" ry="18"/>
<text text-anchor="middle" x="1657" y="-590.3" font-family="Times,serif" font-size="14.00">%ks</text>
</g>
<!-- xk -->
<g id="node17" class="node">
<title>xk</title>
<ellipse fill="none" stroke="black" cx="1657" cy="-522" rx="30.59" ry="18"/>
<text text-anchor="middle" x="1657" y="-518.3" font-family="Times,serif" font-size="14.00">%xk</text>
</g>
<!-- ks&#45;&gt;xk -->
<g id="edge16" class="edge">
<title>ks&#45;&gt;xk</title>
<path fill="none" stroke="black" d="M1657,-575.7C1657,-567.98 1657,-558.71 1657,-550.11"/>
<polygon fill="black" stroke="black" points="1660.5,-550.1 1657,-540.1 1653.5,-550.1 1660.5,-550.1"/>
</g>
<!-- kd -->
<g id="node56" class="node">
<title>kd</title>
<ellipse fill="none" stroke="black" cx="1695" cy="-234" rx="30.59" ry="18"/>
<text text-anchor="middle" x="1695" y="-230.3" font-family="Times,serif" font-size="14.00">&amp;kd</text>
</g>
<!-- ks&#45;&gt;kd -->
<g id="edge17" class="edge">
<title>ks&#45;&gt;kd</title>
<path fill="none" stroke="black" d="M1634.44,-582.03C1596.49,-561.81 1524,-514.84 1524,-451 1524,-451 1524,-451 1524,-377 1524,-333.07 1535.06,-318.16 1567,-288 1591.92,-264.47 1628.76,-250.71 1656.53,-243.14"/>
<polygon fill="black" stroke="black" points="1657.49,-246.51 1666.31,-240.62 1655.75,-239.73 1657.49,-246.51"/>
</g>
<!-- gb -->
<g id="node31" class="node">
<title>gb</title>
<ellipse fill="none" stroke="black" cx="133" cy="-594" rx="31.4" ry="18"/>
<text text-anchor="middle" x="133" y="-590.3" font-family="Times,serif" font-size="14.00">%gb</text>
</g>
<!-- cm&#45;&gt;gb -->
<g id="edge22" class="edge">
<title>cm&#45;&gt;gb</title>
<path fill="none" stroke="black" d="M238.15,-1166.31C200.13,-1161.66 136.28,-1149.18 93,-1116 56.1,-1087.71 38,-1073.5 38,-1027 38,-1027 38,-1027 38,-737 38,-686.84 79.45,-640.99 107.59,-615.64"/>
<polygon fill="black" stroke="black" points="109.91,-618.26 115.13,-609.05 105.3,-613 109.91,-618.26"/>
</g>
<!-- sk -->
<g id="node36" class="node">
<title>sk</title>
<ellipse fill="none" stroke="black" cx="191" cy="-954" rx="29.8" ry="18"/>
<text text-anchor="middle" x="191" y="-950.3" font-family="Times,serif" font-size="14.00">%sk</text>
</g>
<!-- cm&#45;&gt;sk -->
<g id="edge19" class="edge">
<title>cm&#45;&gt;sk</title>
<path fill="none" stroke="black" d="M252.94,-1154.58C229.2,-1133.27 187.29,-1090.8 171,-1044 163.75,-1023.18 170.3,-998.68 177.79,-980.67"/>
<polygon fill="black" stroke="black" points="181.05,-981.94 181.96,-971.39 174.67,-979.07 181.05,-981.94"/>
</g>
<!-- dt -->
<g id="node49" class="node">
<title>dt</title>
<ellipse fill="none" stroke="black" cx="663" cy="-162" rx="28.7" ry="18"/>
<text text-anchor="middle" x="663" y="-158.3" font-family="Times,serif" font-size="14.00">&amp;dt</text>
</g>
<!-- cm&#45;&gt;dt -->
<g id="edge21" class="edge">
<title>cm&#45;&gt;dt</title>
<path fill="none" stroke="black" d="M302.45,-1168.01C340.37,-1165.04 402.35,-1154.18 437,-1116 464.18,-1086.05 456,-1067.45 456,-1027 456,-1027 456,-1027 456,-305 456,-223.43 566.66,-185.23 626.16,-170.59"/>
<polygon fill="black" stroke="black" points="627.01,-173.98 635.94,-168.28 625.4,-167.17 627.01,-173.98"/>
</g>
<!-- jp -->
<g id="node53" class="node">
<title>jp</title>
<ellipse fill="none" stroke="black" cx="221" cy="-810" rx="28.7" ry="18"/>
<text text-anchor="middle" x="221" y="-806.3" font-family="Times,serif" font-size="14.00">%jp</text>
</g>
<!-- cm&#45;&gt;jp -->
<g id="edge18" class="edge">
<title>cm&#45;&gt;jp</title>
<path fill="none" stroke="black" d="M270,-1151.95C270,-1125.29 270,-1072.11 270,-1027 270,-1027 270,-1027 270,-953 270,-910.08 249.74,-863.65 235.28,-835.97"/>
<polygon fill="black" stroke="black" points="238.27,-834.14 230.45,-826.99 232.11,-837.46 238.27,-834.14"/>
</g>
<!-- ft -->
<g id="node54" class="node">
<title>ft</title>
<ellipse fill="none" stroke="black" cx="401" cy="-1098" rx="27" ry="18"/>
<text text-anchor="middle" x="401" y="-1094.3" font-family="Times,serif" font-size="14.00">%ft</text>
</g>
<!-- cm&#45;&gt;ft -->
<g id="edge20" class="edge">
<title>cm&#45;&gt;ft</title>
<path fill="none" stroke="black" d="M289.8,-1155.5C311.04,-1143.24 344.72,-1125.24 369.54,-1112.86"/>
<polygon fill="black" stroke="black" points="371.15,-1115.97 378.58,-1108.42 368.06,-1109.69 371.15,-1115.97"/>
</g>
<!-- gk -->
<g id="node10" class="node">
<title>gk</title>
<ellipse fill="none" stroke="black" cx="1769" cy="-738" rx="30.59" ry="18"/>
<text text-anchor="middle" x="1769" y="-734.3" font-family="Times,serif" font-size="14.00">%gk</text>
</g>
<!-- qv -->
<g id="node18" class="node">
<title>qv</title>
<ellipse fill="none" stroke="black" cx="1731" cy="-666" rx="30.59" ry="18"/>
<text text-anchor="middle" x="1731" y="-662.3" font-family="Times,serif" font-size="14.00">%qv</text>
</g>
<!-- gk&#45;&gt;qv -->
<g id="edge23" class="edge">
<title>gk&#45;&gt;qv</title>
<path fill="none" stroke="black" d="M1760.19,-720.76C1755.65,-712.4 1750.01,-702.02 1744.9,-692.61"/>
<polygon fill="black" stroke="black" points="1747.88,-690.75 1740.03,-683.63 1741.72,-694.09 1747.88,-690.75"/>
</g>
<!-- gk&#45;&gt;kd -->
<g id="edge24" class="edge">
<title>gk&#45;&gt;kd</title>
<path fill="none" stroke="black" d="M1773.15,-720.07C1779.27,-693.57 1790,-640.61 1790,-595 1790,-595 1790,-595 1790,-377 1790,-326.84 1748.55,-280.99 1720.41,-255.64"/>
<polygon fill="black" stroke="black" points="1722.7,-253 1712.87,-249.05 1718.09,-258.26 1722.7,-253"/>
</g>
<!-- qd -->
<g id="node11" class="node">
<title>qd</title>
<ellipse fill="none" stroke="black" cx="191" cy="-882" rx="31.4" ry="18"/>
<text text-anchor="middle" x="191" y="-878.3" font-family="Times,serif" font-size="14.00">%qd</text>
</g>
<!-- qd&#45;&gt;cm -->
<g id="edge27" class="edge">
<title>qd&#45;&gt;cm</title>
<path fill="none" stroke="black" d="M175.72,-898.17C166.93,-908.03 156.7,-921.67 152,-936 126.63,-1013.28 135.87,-1051.18 185,-1116 197.76,-1132.84 217.56,-1145.63 234.83,-1154.43"/>
<polygon fill="black" stroke="black" points="233.59,-1157.71 244.11,-1158.9 236.63,-1151.41 233.59,-1157.71"/>
</g>
<!-- qd&#45;&gt;jp -->
<g id="edge26" class="edge">
<title>qd&#45;&gt;jp</title>
<path fill="none" stroke="black" d="M198.11,-864.41C201.66,-856.13 206.03,-845.92 210,-836.66"/>
<polygon fill="black" stroke="black" points="213.22,-838.04 213.94,-827.47 206.79,-835.28 213.22,-838.04"/>
</g>
<!-- fs -->
<g id="node55" class="node">
<title>fs</title>
<ellipse fill="none" stroke="black" cx="818" cy="-522" rx="27.9" ry="18"/>
<text text-anchor="middle" x="818" y="-518.3" font-family="Times,serif" font-size="14.00">%fs</text>
</g>
<!-- jk&#45;&gt;fs -->
<g id="edge28" class="edge">
<title>jk&#45;&gt;fs</title>
<path fill="none" stroke="black" d="M773.37,-577.81C780.91,-568.55 790.7,-556.52 799.19,-546.09"/>
<polygon fill="black" stroke="black" points="802.06,-548.12 805.66,-538.16 796.63,-543.7 802.06,-548.12"/>
</g>
<!-- vq -->
<g id="node13" class="node">
<title>vq</title>
<ellipse fill="none" stroke="black" cx="1638" cy="-378" rx="30.59" ry="18"/>
<text text-anchor="middle" x="1638" y="-374.3" font-family="Times,serif" font-size="14.00">%vq</text>
</g>
<!-- qj -->
<g id="node45" class="node">
<title>qj</title>
<ellipse fill="none" stroke="black" cx="1619" cy="-306" rx="28.7" ry="18"/>
<text text-anchor="middle" x="1619" y="-302.3" font-family="Times,serif" font-size="14.00">%qj</text>
</g>
<!-- vq&#45;&gt;qj -->
<g id="edge29" class="edge">
<title>vq&#45;&gt;qj</title>
<path fill="none" stroke="black" d="M1633.4,-360.05C1631.25,-352.14 1628.65,-342.54 1626.24,-333.69"/>
<polygon fill="black" stroke="black" points="1629.55,-332.52 1623.56,-323.79 1622.8,-334.36 1629.55,-332.52"/>
</g>
<!-- vq&#45;&gt;kd -->
<g id="edge30" class="edge">
<title>vq&#45;&gt;kd</title>
<path fill="none" stroke="black" d="M1644.76,-360.15C1654.58,-335.71 1672.85,-290.17 1684.45,-261.29"/>
<polygon fill="black" stroke="black" points="1687.77,-262.41 1688.25,-251.82 1681.27,-259.8 1687.77,-262.41"/>
</g>
<!-- lj&#45;&gt;zz -->
<g id="edge32" class="edge">
<title>lj&#45;&gt;zz</title>
<path fill="none" stroke="black" d="M744.37,-756.23C747.32,-793.32 754.28,-880.98 757.83,-925.71"/>
<polygon fill="black" stroke="black" points="754.36,-926.16 758.64,-935.85 761.33,-925.6 754.36,-926.16"/>
</g>
<!-- cx -->
<g id="node47" class="node">
<title>cx</title>
<ellipse fill="none" stroke="black" cx="761" cy="-666" rx="29.8" ry="18"/>
<text text-anchor="middle" x="761" y="-662.3" font-family="Times,serif" font-size="14.00">%cx</text>
</g>
<!-- lj&#45;&gt;cx -->
<g id="edge31" class="edge">
<title>lj&#45;&gt;cx</title>
<path fill="none" stroke="black" d="M747.36,-720.05C749.36,-712.26 751.79,-702.82 754.04,-694.08"/>
<polygon fill="black" stroke="black" points="757.46,-694.83 756.56,-684.28 750.68,-693.09 757.46,-694.83"/>
</g>
<!-- th&#45;&gt;bh -->
<g id="edge33" class="edge">
<title>th&#45;&gt;bh</title>
<path fill="none" stroke="black" d="M642.33,-866.5C652.68,-856.71 666.52,-843.61 678.16,-832.6"/>
<polygon fill="black" stroke="black" points="680.57,-835.14 685.43,-825.73 675.76,-830.06 680.57,-835.14"/>
</g>
<!-- rp -->
<g id="node16" class="node">
<title>rp</title>
<ellipse fill="none" stroke="black" cx="239" cy="-522" rx="29.8" ry="18"/>
<text text-anchor="middle" x="239" y="-518.3" font-family="Times,serif" font-size="14.00">%rp</text>
</g>
<!-- rp&#45;&gt;cm -->
<g id="edge35" class="edge">
<title>rp&#45;&gt;cm</title>
<path fill="none" stroke="black" d="M258.63,-536.17C289.52,-558.64 346,-607.59 346,-665 346,-1027 346,-1027 346,-1027 346,-1073.63 313.75,-1119.76 291.27,-1146.26"/>
<polygon fill="black" stroke="black" points="288.6,-1144 284.65,-1153.83 293.87,-1148.6 288.6,-1144"/>
</g>
<!-- bk -->
<g id="node38" class="node">
<title>bk</title>
<ellipse fill="none" stroke="black" cx="239" cy="-450" rx="30.59" ry="18"/>
<text text-anchor="middle" x="239" y="-446.3" font-family="Times,serif" font-size="14.00">%bk</text>
</g>
<!-- rp&#45;&gt;bk -->
<g id="edge34" class="edge">
<title>rp&#45;&gt;bk</title>
<path fill="none" stroke="black" d="M239,-503.7C239,-495.98 239,-486.71 239,-478.11"/>
<polygon fill="black" stroke="black" points="242.5,-478.1 239,-468.1 235.5,-478.1 242.5,-478.1"/>
</g>
<!-- nv -->
<g id="node41" class="node">
<title>nv</title>
<ellipse fill="none" stroke="black" cx="1638" cy="-450" rx="30.59" ry="18"/>
<text text-anchor="middle" x="1638" y="-446.3" font-family="Times,serif" font-size="14.00">%nv</text>
</g>
<!-- xk&#45;&gt;nv -->
<g id="edge36" class="edge">
<title>xk&#45;&gt;nv</title>
<path fill="none" stroke="black" d="M1652.4,-504.05C1650.29,-496.26 1647.72,-486.82 1645.35,-478.08"/>
<polygon fill="black" stroke="black" points="1648.69,-477.01 1642.69,-468.28 1641.93,-478.84 1648.69,-477.01"/>
</g>
<!-- xk&#45;&gt;kd -->
<g id="edge37" class="edge">
<title>xk&#45;&gt;kd</title>
<path fill="none" stroke="black" d="M1665.17,-504.24C1669.76,-494.01 1675.13,-480.54 1678,-468 1694.69,-395.11 1696.16,-306.35 1695.67,-262.39"/>
<polygon fill="black" stroke="black" points="1699.17,-262.16 1695.51,-252.22 1692.17,-262.27 1699.17,-262.16"/>
</g>
<!-- qv&#45;&gt;ks -->
<g id="edge38" class="edge">
<title>qv&#45;&gt;ks</title>
<path fill="none" stroke="black" d="M1715.31,-650.15C1705.03,-640.44 1691.44,-627.58 1679.96,-616.72"/>
<polygon fill="black" stroke="black" points="1682.09,-613.91 1672.42,-609.58 1677.28,-619 1682.09,-613.91"/>
</g>
<!-- mj -->
<g id="node19" class="node">
<title>mj</title>
<ellipse fill="none" stroke="black" cx="1093" cy="-1026" rx="31.4" ry="18"/>
<text text-anchor="middle" x="1093" y="-1022.3" font-family="Times,serif" font-size="14.00">%mj</text>
</g>
<!-- mh -->
<g id="node21" class="node">
<title>mh</title>
<ellipse fill="none" stroke="black" cx="1161" cy="-882" rx="33.6" ry="18"/>
<text text-anchor="middle" x="1161" y="-878.3" font-family="Times,serif" font-size="14.00">&amp;mh</text>
</g>
<!-- mj&#45;&gt;mh -->
<g id="edge40" class="edge">
<title>mj&#45;&gt;mh</title>
<path fill="none" stroke="black" d="M1100.93,-1008.43C1112.64,-983.98 1134.66,-938 1148.54,-909.02"/>
<polygon fill="black" stroke="black" points="1151.74,-910.43 1152.91,-899.9 1145.43,-907.41 1151.74,-910.43"/>
</g>
<!-- xg -->
<g id="node42" class="node">
<title>xg</title>
<ellipse fill="none" stroke="black" cx="1055" cy="-954" rx="30.59" ry="18"/>
<text text-anchor="middle" x="1055" y="-950.3" font-family="Times,serif" font-size="14.00">%xg</text>
</g>
<!-- mj&#45;&gt;xg -->
<g id="edge39" class="edge">
<title>mj&#45;&gt;xg</title>
<path fill="none" stroke="black" d="M1083.99,-1008.41C1079.45,-1000.04 1073.84,-989.71 1068.77,-980.37"/>
<polygon fill="black" stroke="black" points="1071.79,-978.59 1063.94,-971.47 1065.64,-981.93 1071.79,-978.59"/>
</g>
<!-- lh -->
<g id="node20" class="node">
<title>lh</title>
<ellipse fill="none" stroke="black" cx="855" cy="-450" rx="28.7" ry="18"/>
<text text-anchor="middle" x="855" y="-446.3" font-family="Times,serif" font-size="14.00">%lh</text>
</g>
<!-- lh&#45;&gt;zz -->
<g id="edge41" class="edge">
<title>lh&#45;&gt;zz</title>
<path fill="none" stroke="black" d="M858.75,-467.95C864.29,-494.48 874,-547.48 874,-593 874,-811 874,-811 874,-811 874,-865.56 822.19,-911.09 788.43,-934.97"/>
<polygon fill="black" stroke="black" points="786.13,-932.31 779.86,-940.85 790.08,-938.08 786.13,-932.31"/>
</g>
<!-- pz -->
<g id="node32" class="node">
<title>pz</title>
<ellipse fill="none" stroke="black" cx="873" cy="-378" rx="30.59" ry="18"/>
<text text-anchor="middle" x="873" y="-374.3" font-family="Times,serif" font-size="14.00">%pz</text>
</g>
<!-- lh&#45;&gt;pz -->
<g id="edge42" class="edge">
<title>lh&#45;&gt;pz</title>
<path fill="none" stroke="black" d="M859.36,-432.05C861.36,-424.26 863.79,-414.82 866.04,-406.08"/>
<polygon fill="black" stroke="black" points="869.46,-406.83 868.56,-396.28 862.68,-405.09 869.46,-406.83"/>
</g>
<!-- pg -->
<g id="node23" class="node">
<title>pg</title>
<ellipse fill="none" stroke="black" cx="1083" cy="-738" rx="31.4" ry="18"/>
<text text-anchor="middle" x="1083" y="-734.3" font-family="Times,serif" font-size="14.00">%pg</text>
</g>
<!-- mh&#45;&gt;pg -->
<g id="edge47" class="edge">
<title>mh&#45;&gt;pg</title>
<path fill="none" stroke="black" d="M1150.21,-864.52C1143.57,-854.17 1135.02,-840.47 1128,-828 1116.25,-807.12 1104.06,-782.81 1095.33,-764.88"/>
<polygon fill="black" stroke="black" points="1098.37,-763.11 1090.86,-755.63 1092.06,-766.16 1098.37,-763.11"/>
</g>
<!-- vk -->
<g id="node44" class="node">
<title>vk</title>
<ellipse fill="none" stroke="black" cx="1142" cy="-522" rx="30.59" ry="18"/>
<text text-anchor="middle" x="1142" y="-518.3" font-family="Times,serif" font-size="14.00">%vk</text>
</g>
<!-- mh&#45;&gt;vk -->
<g id="edge46" class="edge">
<title>mh&#45;&gt;vk</title>
<path fill="none" stroke="black" d="M1140.44,-867.47C1111.87,-847.24 1061.59,-806.08 1043,-756 1013.82,-677.39 1083.11,-586.54 1120.32,-545.36"/>
<polygon fill="black" stroke="black" points="1123.08,-547.52 1127.29,-537.8 1117.94,-542.77 1123.08,-547.52"/>
</g>
<!-- qs -->
<g id="node46" class="node">
<title>qs</title>
<ellipse fill="none" stroke="black" cx="1390" cy="-378" rx="29.8" ry="18"/>
<text text-anchor="middle" x="1390" y="-374.3" font-family="Times,serif" font-size="14.00">&amp;qs</text>
</g>
<!-- mh&#45;&gt;qs -->
<g id="edge44" class="edge">
<title>mh&#45;&gt;qs</title>
<path fill="none" stroke="black" d="M1194.72,-880.13C1235.5,-877.3 1303.9,-866.63 1346,-828 1377.2,-799.37 1380,-781.34 1380,-739 1380,-739 1380,-739 1380,-521 1380,-480.9 1384.02,-434.58 1386.96,-406.04"/>
<polygon fill="black" stroke="black" points="1390.45,-406.34 1388.02,-396.02 1383.49,-405.6 1390.45,-406.34"/>
</g>
<!-- vs -->
<g id="node51" class="node">
<title>vs</title>
<ellipse fill="none" stroke="black" cx="1008" cy="-810" rx="29.8" ry="18"/>
<text text-anchor="middle" x="1008" y="-806.3" font-family="Times,serif" font-size="14.00">%vs</text>
</g>
<!-- mh&#45;&gt;vs -->
<g id="edge45" class="edge">
<title>mh&#45;&gt;vs</title>
<path fill="none" stroke="black" d="M1136.08,-869.6C1110.06,-857.69 1069.14,-838.97 1040.58,-825.91"/>
<polygon fill="black" stroke="black" points="1041.95,-822.69 1031.41,-821.71 1039.04,-829.05 1041.95,-822.69"/>
</g>
<!-- ct -->
<g id="node52" class="node">
<title>ct</title>
<ellipse fill="none" stroke="black" cx="1127" cy="-1098" rx="28.7" ry="18"/>
<text text-anchor="middle" x="1127" y="-1094.3" font-family="Times,serif" font-size="14.00">%ct</text>
</g>
<!-- mh&#45;&gt;ct -->
<g id="edge43" class="edge">
<title>mh&#45;&gt;ct</title>
<path fill="none" stroke="black" d="M1162.16,-900.01C1159.83,-937.16 1146.01,-1025.76 1135.87,-1070.38"/>
<polygon fill="black" stroke="black" points="1132.44,-1069.67 1133.51,-1080.21 1139.25,-1071.3 1132.44,-1069.67"/>
</g>
<!-- kb -->
<g id="node22" class="node">
<title>kb</title>
<ellipse fill="none" stroke="black" cx="1816" cy="-1026" rx="30.59" ry="18"/>
<text text-anchor="middle" x="1816" y="-1022.3" font-family="Times,serif" font-size="14.00">%kb</text>
</g>
<!-- hv -->
<g id="node26" class="node">
<title>hv</title>
<ellipse fill="none" stroke="black" cx="1816" cy="-954" rx="30.59" ry="18"/>
<text text-anchor="middle" x="1816" y="-950.3" font-family="Times,serif" font-size="14.00">%hv</text>
</g>
<!-- kb&#45;&gt;hv -->
<g id="edge48" class="edge">
<title>kb&#45;&gt;hv</title>
<path fill="none" stroke="black" d="M1816,-1007.7C1816,-999.98 1816,-990.71 1816,-982.11"/>
<polygon fill="black" stroke="black" points="1819.5,-982.1 1816,-972.1 1812.5,-982.1 1819.5,-982.1"/>
</g>
<!-- kb&#45;&gt;kd -->
<g id="edge49" class="edge">
<title>kb&#45;&gt;kd</title>
<path fill="none" stroke="black" d="M1786.82,-1020.24C1699.78,-1005.22 1448,-955.5 1448,-883 1448,-883 1448,-883 1448,-377 1448,-332.47 1459.26,-315.85 1494,-288 1540.4,-250.8 1610.35,-239.53 1654.31,-236.22"/>
<polygon fill="black" stroke="black" points="1654.6,-239.71 1664.35,-235.57 1654.14,-232.73 1654.6,-239.71"/>
</g>
<!-- lz -->
<g id="node50" class="node">
<title>lz</title>
<ellipse fill="none" stroke="black" cx="1125" cy="-666" rx="27.1" ry="18"/>
<text text-anchor="middle" x="1125" y="-662.3" font-family="Times,serif" font-size="14.00">%lz</text>
</g>
<!-- pg&#45;&gt;lz -->
<g id="edge50" class="edge">
<title>pg&#45;&gt;lz</title>
<path fill="none" stroke="black" d="M1092.74,-720.76C1097.88,-712.19 1104.3,-701.49 1110.06,-691.9"/>
<polygon fill="black" stroke="black" points="1113.17,-693.52 1115.31,-683.15 1107.17,-689.92 1113.17,-693.52"/>
</g>
<!-- qm -->
<g id="node24" class="node">
<title>qm</title>
<ellipse fill="none" stroke="black" cx="1878" cy="-1098" rx="34.39" ry="18"/>
<text text-anchor="middle" x="1878" y="-1094.3" font-family="Times,serif" font-size="14.00">%qm</text>
</g>
<!-- qm&#45;&gt;kb -->
<g id="edge51" class="edge">
<title>qm&#45;&gt;kb</title>
<path fill="none" stroke="black" d="M1864.24,-1081.46C1856.05,-1072.22 1845.51,-1060.32 1836.37,-1050"/>
<polygon fill="black" stroke="black" points="1838.97,-1047.66 1829.72,-1042.49 1833.73,-1052.3 1838.97,-1047.66"/>
</g>
<!-- qm&#45;&gt;kd -->
<g id="edge52" class="edge">
<title>qm&#45;&gt;kd</title>
<path fill="none" stroke="black" d="M1879.32,-1079.85C1886.31,-1053.49 1904,-1001.21 1904,-955 1904,-955 1904,-955 1904,-377 1904,-294.81 1793.85,-257.71 1733.38,-243.14"/>
<polygon fill="black" stroke="black" points="1733.94,-239.67 1723.41,-240.83 1732.36,-246.49 1733.94,-239.67"/>
</g>
<!-- pc -->
<g id="node25" class="node">
<title>pc</title>
<ellipse fill="none" stroke="black" cx="221" cy="-738" rx="30.59" ry="18"/>
<text text-anchor="middle" x="221" y="-734.3" font-family="Times,serif" font-size="14.00">%pc</text>
</g>
<!-- pc&#45;&gt;cm -->
<g id="edge53" class="edge">
<title>pc&#45;&gt;cm</title>
<path fill="none" stroke="black" d="M237.36,-753.37C262.57,-777.17 308,-827.51 308,-881 308,-1027 308,-1027 308,-1027 308,-1068.59 292.6,-1114.78 281.4,-1142.86"/>
<polygon fill="black" stroke="black" points="278.07,-1141.76 277.51,-1152.34 284.55,-1144.42 278.07,-1141.76"/>
</g>
<!-- xl -->
<g id="node29" class="node">
<title>xl</title>
<ellipse fill="none" stroke="black" cx="133" cy="-666" rx="27.9" ry="18"/>
<text text-anchor="middle" x="133" y="-662.3" font-family="Times,serif" font-size="14.00">%xl</text>
</g>
<!-- pc&#45;&gt;xl -->
<g id="edge54" class="edge">
<title>pc&#45;&gt;xl</title>
<path fill="none" stroke="black" d="M203.61,-723.17C190.63,-712.85 172.7,-698.58 158.16,-687.01"/>
<polygon fill="black" stroke="black" points="160.06,-684.05 150.05,-680.56 155.7,-689.53 160.06,-684.05"/>
</g>
<!-- hv&#45;&gt;rn -->
<g id="edge56" class="edge">
<title>hv&#45;&gt;rn</title>
<path fill="none" stroke="black" d="M1809.36,-936.41C1806.13,-928.34 1802.17,-918.43 1798.54,-909.35"/>
<polygon fill="black" stroke="black" points="1801.75,-907.94 1794.78,-899.96 1795.25,-910.54 1801.75,-907.94"/>
</g>
<!-- hv&#45;&gt;kd -->
<g id="edge55" class="edge">
<title>hv&#45;&gt;kd</title>
<path fill="none" stroke="black" d="M1825.88,-936.61C1840.45,-910.84 1866,-858.83 1866,-811 1866,-811 1866,-811 1866,-377 1866,-307.36 1781.02,-265.34 1730.87,-246.6"/>
<polygon fill="black" stroke="black" points="1731.94,-243.27 1721.34,-243.16 1729.56,-249.85 1731.94,-243.27"/>
</g>
<!-- fr -->
<g id="node27" class="node">
<title>fr</title>
<ellipse fill="none" stroke="black" cx="1239" cy="-378" rx="27.1" ry="18"/>
<text text-anchor="middle" x="1239" y="-374.3" font-family="Times,serif" font-size="14.00">%fr</text>
</g>
<!-- fr&#45;&gt;mh -->
<g id="edge58" class="edge">
<title>fr&#45;&gt;mh</title>
<path fill="none" stroke="black" d="M1242.36,-395.97C1247.31,-422.52 1256,-475.56 1256,-521 1256,-739 1256,-739 1256,-739 1256,-788.89 1215,-834.51 1186.87,-859.95"/>
<polygon fill="black" stroke="black" points="1184.52,-857.35 1179.32,-866.57 1189.14,-862.61 1184.52,-857.35"/>
</g>
<!-- fl -->
<g id="node34" class="node">
<title>fl</title>
<ellipse fill="none" stroke="black" cx="1277" cy="-306" rx="27" ry="18"/>
<text text-anchor="middle" x="1277" y="-302.3" font-family="Times,serif" font-size="14.00">%fl</text>
</g>
<!-- fr&#45;&gt;fl -->
<g id="edge57" class="edge">
<title>fr&#45;&gt;fl</title>
<path fill="none" stroke="black" d="M1247.81,-360.76C1252.42,-352.28 1258.16,-341.71 1263.32,-332.2"/>
<polygon fill="black" stroke="black" points="1266.54,-333.61 1268.23,-323.15 1260.39,-330.27 1266.54,-333.61"/>
</g>
<!-- mp -->
<g id="node28" class="node">
<title>mp</title>
<ellipse fill="none" stroke="black" cx="743" cy="-234" rx="34.39" ry="18"/>
<text text-anchor="middle" x="743" y="-230.3" font-family="Times,serif" font-size="14.00">%mp</text>
</g>
<!-- mp&#45;&gt;zz -->
<g id="edge59" class="edge">
<title>mp&#45;&gt;zz</title>
<path fill="none" stroke="black" d="M714.04,-243.86C664.79,-260.94 570,-303.37 570,-377 570,-811 570,-811 570,-811 570,-851.45 561.72,-870.14 589,-900 622.89,-937.1 682.18,-948.48 721.27,-951.83"/>
<polygon fill="black" stroke="black" points="721.25,-955.33 731.47,-952.56 721.75,-948.35 721.25,-955.33"/>
</g>
<!-- xl&#45;&gt;cm -->
<g id="edge60" class="edge">
<title>xl&#45;&gt;cm</title>
<path fill="none" stroke="black" d="M122.01,-682.78C105.45,-708.15 76,-760.12 76,-809 76,-1027 76,-1027 76,-1027 76,-1102.99 174.13,-1142.72 230.81,-1159.33"/>
<polygon fill="black" stroke="black" points="229.96,-1162.72 240.54,-1162.07 231.86,-1155.99 229.96,-1162.72"/>
</g>
<!-- xl&#45;&gt;gb -->
<g id="edge61" class="edge">
<title>xl&#45;&gt;gb</title>
<path fill="none" stroke="black" d="M133,-647.7C133,-639.98 133,-630.71 133,-622.11"/>
<polygon fill="black" stroke="black" points="136.5,-622.1 133,-612.1 129.5,-622.1 136.5,-622.1"/>
</g>
<!-- tp -->
<g id="node30" class="node">
<title>tp</title>
<ellipse fill="none" stroke="black" cx="1300" cy="-234" rx="29.5" ry="18"/>
<text text-anchor="middle" x="1300" y="-230.3" font-family="Times,serif" font-size="14.00">%tp</text>
</g>
<!-- tp&#45;&gt;mh -->
<g id="edge62" class="edge">
<title>tp&#45;&gt;mh</title>
<path fill="none" stroke="black" d="M1306.32,-251.77C1315.65,-278.06 1332,-330.75 1332,-377 1332,-739 1332,-739 1332,-739 1332,-807.56 1249.65,-849.35 1199.24,-868.5"/>
<polygon fill="black" stroke="black" points="1197.8,-865.3 1189.62,-872.04 1200.22,-871.88 1197.8,-865.3"/>
</g>
<!-- gb&#45;&gt;rp -->
<g id="edge63" class="edge">
<title>gb&#45;&gt;rp</title>
<path fill="none" stroke="black" d="M152.94,-579.83C169.33,-569.01 192.74,-553.55 211.01,-541.49"/>
<polygon fill="black" stroke="black" points="213.09,-544.3 219.51,-535.87 209.24,-538.46 213.09,-544.3"/>
</g>
<!-- pz&#45;&gt;zz -->
<g id="edge65" class="edge">
<title>pz&#45;&gt;zz</title>
<path fill="none" stroke="black" d="M880.71,-395.64C892.07,-421.76 912,-474.21 912,-521 912,-811 912,-811 912,-811 912,-875.6 837.79,-919.25 793.08,-939.69"/>
<polygon fill="black" stroke="black" points="791.48,-936.57 783.75,-943.81 794.31,-942.97 791.48,-936.57"/>
</g>
<!-- mf -->
<g id="node48" class="node">
<title>mf</title>
<ellipse fill="none" stroke="black" cx="873" cy="-306" rx="31.7" ry="18"/>
<text text-anchor="middle" x="873" y="-302.3" font-family="Times,serif" font-size="14.00">%mf</text>
</g>
<!-- pz&#45;&gt;mf -->
<g id="edge64" class="edge">
<title>pz&#45;&gt;mf</title>
<path fill="none" stroke="black" d="M873,-359.7C873,-351.98 873,-342.71 873,-334.11"/>
<polygon fill="black" stroke="black" points="876.5,-334.1 873,-324.1 869.5,-334.1 876.5,-334.1"/>
</g>
<!-- qn -->
<g id="node33" class="node">
<title>qn</title>
<ellipse fill="none" stroke="black" cx="211" cy="-1026" rx="31.4" ry="18"/>
<text text-anchor="middle" x="211" y="-1022.3" font-family="Times,serif" font-size="14.00">%qn</text>
</g>
<!-- qn&#45;&gt;cm -->
<g id="edge66" class="edge">
<title>qn&#45;&gt;cm</title>
<path fill="none" stroke="black" d="M217.99,-1043.82C228.14,-1068.26 247.06,-1113.79 259.07,-1142.69"/>
<polygon fill="black" stroke="black" points="255.93,-1144.26 263,-1152.15 262.4,-1141.58 255.93,-1144.26"/>
</g>
<!-- qn&#45;&gt;sk -->
<g id="edge67" class="edge">
<title>qn&#45;&gt;sk</title>
<path fill="none" stroke="black" d="M206.16,-1008.05C203.9,-1000.14 201.15,-990.54 198.63,-981.69"/>
<polygon fill="black" stroke="black" points="201.91,-980.44 195.8,-971.79 195.18,-982.37 201.91,-980.44"/>
</g>
<!-- fl&#45;&gt;mh -->
<g id="edge69" class="edge">
<title>fl&#45;&gt;mh</title>
<path fill="none" stroke="black" d="M1280.36,-323.97C1285.31,-350.52 1294,-403.56 1294,-449 1294,-739 1294,-739 1294,-739 1294,-797.32 1233.5,-841.56 1194.11,-864.19"/>
<polygon fill="black" stroke="black" points="1192.12,-861.29 1185.09,-869.21 1195.53,-867.41 1192.12,-861.29"/>
</g>
<!-- fl&#45;&gt;tp -->
<g id="edge68" class="edge">
<title>fl&#45;&gt;tp</title>
<path fill="none" stroke="black" d="M1282.57,-288.05C1285.2,-280.06 1288.39,-270.33 1291.33,-261.4"/>
<polygon fill="black" stroke="black" points="1294.69,-262.38 1294.48,-251.79 1288.04,-260.2 1294.69,-262.38"/>
</g>
<!-- zq -->
<g id="node35" class="node">
<title>zq</title>
<ellipse fill="none" stroke="black" cx="692" cy="-1026" rx="30.59" ry="18"/>
<text text-anchor="middle" x="692" y="-1022.3" font-family="Times,serif" font-size="14.00">%zq</text>
</g>
<!-- zq&#45;&gt;zz -->
<g id="edge71" class="edge">
<title>zq&#45;&gt;zz</title>
<path fill="none" stroke="black" d="M706.75,-1009.81C716.06,-1000.23 728.23,-987.7 738.59,-977.04"/>
<polygon fill="black" stroke="black" points="741.28,-979.29 745.74,-969.68 736.26,-974.41 741.28,-979.29"/>
</g>
<!-- zq&#45;&gt;th -->
<g id="edge70" class="edge">
<title>zq&#45;&gt;th</title>
<path fill="none" stroke="black" d="M684.42,-1008.43C673.16,-983.85 651.95,-937.51 638.7,-908.56"/>
<polygon fill="black" stroke="black" points="641.88,-907.1 634.54,-899.46 635.51,-910.01 641.88,-907.1"/>
</g>
<!-- sk&#45;&gt;qd -->
<g id="edge72" class="edge">
<title>sk&#45;&gt;qd</title>
<path fill="none" stroke="black" d="M191,-935.7C191,-927.98 191,-918.71 191,-910.11"/>
<polygon fill="black" stroke="black" points="194.5,-910.1 191,-900.1 187.5,-910.1 194.5,-910.1"/>
</g>
<!-- tk -->
<g id="node37" class="node">
<title>tk</title>
<ellipse fill="none" stroke="black" cx="1142" cy="-594" rx="28.7" ry="18"/>
<text text-anchor="middle" x="1142" y="-590.3" font-family="Times,serif" font-size="14.00">%tk</text>
</g>
<!-- tk&#45;&gt;mh -->
<g id="edge73" class="edge">
<title>tk&#45;&gt;mh</title>
<path fill="none" stroke="black" d="M1149.66,-611.79C1153.92,-622.02 1158.78,-635.49 1161,-648 1174.03,-721.44 1168.29,-809.95 1164.06,-853.73"/>
<polygon fill="black" stroke="black" points="1160.56,-853.56 1163.03,-863.87 1167.52,-854.27 1160.56,-853.56"/>
</g>
<!-- tk&#45;&gt;vk -->
<g id="edge74" class="edge">
<title>tk&#45;&gt;vk</title>
<path fill="none" stroke="black" d="M1142,-575.7C1142,-567.98 1142,-558.71 1142,-550.11"/>
<polygon fill="black" stroke="black" points="1145.5,-550.1 1142,-540.1 1138.5,-550.1 1145.5,-550.1"/>
</g>
<!-- bk&#45;&gt;bd -->
<g id="edge75" class="edge">
<title>bk&#45;&gt;bd</title>
<path fill="none" stroke="black" d="M269,-453.71C336.41,-461.62 494,-491.02 494,-593 494,-1171 494,-1171 494,-1171 494,-1239.18 412.21,-1281.48 363.11,-1300.73"/>
<polygon fill="black" stroke="black" points="361.57,-1297.57 353.46,-1304.38 364.05,-1304.11 361.57,-1297.57"/>
</g>
<!-- bk&#45;&gt;cm -->
<g id="edge76" class="edge">
<title>bk&#45;&gt;cm</title>
<path fill="none" stroke="black" d="M209.21,-454.63C145.15,-464.26 0,-496.71 0,-593 0,-1027 0,-1027 0,-1027 0,-1072.37 13.82,-1088.63 50,-1116 102.25,-1155.53 179.78,-1166.05 227.49,-1168.58"/>
<polygon fill="black" stroke="black" points="227.34,-1172.08 237.48,-1169.02 227.65,-1165.08 227.34,-1172.08"/>
</g>
<!-- ml&#45;&gt;gk -->
<g id="edge77" class="edge">
<title>ml&#45;&gt;gk</title>
<path fill="none" stroke="black" d="M1783.4,-792.05C1781.29,-784.26 1778.72,-774.82 1776.35,-766.08"/>
<polygon fill="black" stroke="black" points="1779.69,-765.01 1773.69,-756.28 1772.93,-766.84 1779.69,-765.01"/>
</g>
<!-- jg -->
<g id="node40" class="node">
<title>jg</title>
<ellipse fill="none" stroke="black" cx="1199" cy="-450" rx="28.7" ry="18"/>
<text text-anchor="middle" x="1199" y="-446.3" font-family="Times,serif" font-size="14.00">%jg</text>
</g>
<!-- jg&#45;&gt;mh -->
<g id="edge79" class="edge">
<title>jg&#45;&gt;mh</title>
<path fill="none" stroke="black" d="M1202.75,-467.95C1208.29,-494.48 1218,-547.48 1218,-593 1218,-739 1218,-739 1218,-739 1218,-782.68 1194.49,-828.82 1177.67,-856.25"/>
<polygon fill="black" stroke="black" points="1174.64,-854.48 1172.26,-864.8 1180.56,-858.22 1174.64,-854.48"/>
</g>
<!-- jg&#45;&gt;fr -->
<g id="edge78" class="edge">
<title>jg&#45;&gt;fr</title>
<path fill="none" stroke="black" d="M1208.28,-432.76C1213.17,-424.19 1219.29,-413.49 1224.77,-403.9"/>
<polygon fill="black" stroke="black" points="1227.85,-405.57 1229.77,-395.15 1221.77,-402.09 1227.85,-405.57"/>
</g>
<!-- nv&#45;&gt;vq -->
<g id="edge80" class="edge">
<title>nv&#45;&gt;vq</title>
<path fill="none" stroke="black" d="M1638,-431.7C1638,-423.98 1638,-414.71 1638,-406.11"/>
<polygon fill="black" stroke="black" points="1641.5,-406.1 1638,-396.1 1634.5,-406.1 1641.5,-406.1"/>
</g>
<!-- nv&#45;&gt;kd -->
<g id="edge81" class="edge">
<title>nv&#45;&gt;kd</title>
<path fill="none" stroke="black" d="M1624.15,-433.78C1598.75,-403.95 1550.06,-336.5 1581,-288 1597.37,-262.33 1629.75,-248.9 1655.83,-241.99"/>
<polygon fill="black" stroke="black" points="1656.93,-245.33 1665.83,-239.57 1655.28,-238.52 1656.93,-245.33"/>
</g>
<!-- xg&#45;&gt;mh -->
<g id="edge82" class="edge">
<title>xg&#45;&gt;mh</title>
<path fill="none" stroke="black" d="M1074.94,-939.83C1091.02,-929.21 1113.86,-914.13 1131.97,-902.17"/>
<polygon fill="black" stroke="black" points="1134.01,-905.02 1140.43,-896.58 1130.16,-899.17 1134.01,-905.02"/>
</g>
<!-- xg&#45;&gt;vs -->
<g id="edge83" class="edge">
<title>xg&#45;&gt;vs</title>
<path fill="none" stroke="black" d="M1049.42,-936.15C1041.37,-911.81 1026.39,-866.57 1016.83,-837.67"/>
<polygon fill="black" stroke="black" points="1020.03,-836.22 1013.57,-827.82 1013.39,-838.42 1020.03,-836.22"/>
</g>
<!-- hr&#45;&gt;zz -->
<g id="edge84" class="edge">
<title>hr&#45;&gt;zz</title>
<path fill="none" stroke="black" d="M755.45,-1080.15C752.85,-1055.92 752.56,-1010.96 754.56,-982.05"/>
<polygon fill="black" stroke="black" points="758.07,-982.09 755.45,-971.82 751.1,-981.49 758.07,-982.09"/>
</g>
<!-- hr&#45;&gt;zq -->
<g id="edge85" class="edge">
<title>hr&#45;&gt;zq</title>
<path fill="none" stroke="black" d="M745.58,-1082.15C736.42,-1072.72 724.38,-1060.33 714.04,-1049.69"/>
<polygon fill="black" stroke="black" points="716.35,-1047.04 706.87,-1042.31 711.33,-1051.92 716.35,-1047.04"/>
</g>
<!-- vk&#45;&gt;jg -->
<g id="edge86" class="edge">
<title>vk&#45;&gt;jg</title>
<path fill="none" stroke="black" d="M1154.65,-505.46C1162.1,-496.31 1171.68,-484.55 1180.02,-474.31"/>
<polygon fill="black" stroke="black" points="1182.78,-476.46 1186.39,-466.49 1177.36,-472.04 1182.78,-476.46"/>
</g>
<!-- qj&#45;&gt;kd -->
<g id="edge87" class="edge">
<title>qj&#45;&gt;kd</title>
<path fill="none" stroke="black" d="M1634.75,-290.5C1645.45,-280.64 1659.78,-267.44 1671.78,-256.38"/>
<polygon fill="black" stroke="black" points="1674.29,-258.83 1679.27,-249.49 1669.55,-253.69 1674.29,-258.83"/>
</g>
<!-- qs&#45;&gt;cl -->
<g id="edge88" class="edge">
<title>qs&#45;&gt;cl</title>
<path fill="none" stroke="black" d="M1388.13,-359.83C1383.98,-328.46 1371.54,-260.98 1338,-216 1298.01,-162.37 1227.97,-123.77 1187.43,-104.63"/>
<polygon fill="black" stroke="black" points="1188.82,-101.42 1178.28,-100.41 1185.89,-107.78 1188.82,-101.42"/>
</g>
<!-- cx&#45;&gt;zz -->
<g id="edge90" class="edge">
<title>cx&#45;&gt;zz</title>
<path fill="none" stroke="black" d="M768.29,-683.82C772.33,-694.06 776.94,-707.54 779,-720 791.22,-793.99 775.9,-882.55 766.43,-926.1"/>
<polygon fill="black" stroke="black" points="763,-925.4 764.23,-935.93 769.83,-926.94 763,-925.4"/>
</g>
<!-- cx&#45;&gt;jk -->
<g id="edge89" class="edge">
<title>cx&#45;&gt;jk</title>
<path fill="none" stroke="black" d="M761,-647.7C761,-639.98 761,-630.71 761,-622.11"/>
<polygon fill="black" stroke="black" points="764.5,-622.1 761,-612.1 757.5,-622.1 764.5,-622.1"/>
</g>
<!-- mf&#45;&gt;zz -->
<g id="edge92" class="edge">
<title>mf&#45;&gt;zz</title>
<path fill="none" stroke="black" d="M887.85,-322.13C910.22,-346.62 950,-397.4 950,-449 950,-811 950,-811 950,-811 950,-886.98 851.29,-927.2 796.17,-943.74"/>
<polygon fill="black" stroke="black" points="795.06,-940.42 786.42,-946.56 797,-947.15 795.06,-940.42"/>
</g>
<!-- mf&#45;&gt;mp -->
<g id="edge91" class="edge">
<title>mf&#45;&gt;mp</title>
<path fill="none" stroke="black" d="M850.65,-292.97C829.89,-281.79 798.73,-265.01 775.26,-252.37"/>
<polygon fill="black" stroke="black" points="776.83,-249.24 766.37,-247.58 773.52,-255.41 776.83,-249.24"/>
</g>
<!-- dt&#45;&gt;cl -->
<g id="edge93" class="edge">
<title>dt&#45;&gt;cl</title>
<path fill="none" stroke="black" d="M690.56,-157.09C774.31,-145.19 1025.82,-109.48 1119.93,-96.12"/>
<polygon fill="black" stroke="black" points="1120.42,-99.59 1129.83,-94.72 1119.44,-92.66 1120.42,-99.59"/>
</g>
<!-- lz&#45;&gt;mh -->
<g id="edge95" class="edge">
<title>lz&#45;&gt;mh</title>
<path fill="none" stroke="black" d="M1127.85,-683.94C1134.07,-720.92 1148.92,-809.2 1156.45,-853.97"/>
<polygon fill="black" stroke="black" points="1153,-854.57 1158.11,-863.85 1159.91,-853.41 1153,-854.57"/>
</g>
<!-- lz&#45;&gt;tk -->
<g id="edge94" class="edge">
<title>lz&#45;&gt;tk</title>
<path fill="none" stroke="black" d="M1129.12,-648.05C1131.01,-640.26 1133.3,-630.82 1135.42,-622.08"/>
<polygon fill="black" stroke="black" points="1138.85,-622.82 1137.8,-612.28 1132.04,-621.17 1138.85,-622.82"/>
</g>
<!-- vs&#45;&gt;pg -->
<g id="edge96" class="edge">
<title>vs&#45;&gt;pg</title>
<path fill="none" stroke="black" d="M1023.54,-794.5C1034.03,-784.71 1048.06,-771.61 1059.85,-760.6"/>
<polygon fill="black" stroke="black" points="1062.3,-763.11 1067.22,-753.73 1057.52,-757.99 1062.3,-763.11"/>
</g>
<!-- ct&#45;&gt;mj -->
<g id="edge98" class="edge">
<title>ct&#45;&gt;mj</title>
<path fill="none" stroke="black" d="M1118.94,-1080.41C1114.92,-1072.13 1109.96,-1061.92 1105.46,-1052.66"/>
<polygon fill="black" stroke="black" points="1108.52,-1050.94 1101,-1043.47 1102.22,-1053.99 1108.52,-1050.94"/>
</g>
<!-- ct&#45;&gt;mh -->
<g id="edge97" class="edge">
<title>ct&#45;&gt;mh</title>
<path fill="none" stroke="black" d="M1125.85,-1079.85C1128.2,-1042.66 1141.97,-954.37 1152.1,-909.77"/>
<polygon fill="black" stroke="black" points="1155.53,-910.48 1154.45,-899.94 1148.72,-908.84 1155.53,-910.48"/>
</g>
<!-- jp&#45;&gt;pc -->
<g id="edge99" class="edge">
<title>jp&#45;&gt;pc</title>
<path fill="none" stroke="black" d="M221,-791.7C221,-783.98 221,-774.71 221,-766.11"/>
<polygon fill="black" stroke="black" points="224.5,-766.1 221,-756.1 217.5,-766.1 224.5,-766.1"/>
</g>
<!-- ft&#45;&gt;cm -->
<g id="edge101" class="edge">
<title>ft&#45;&gt;cm</title>
<path fill="none" stroke="black" d="M382.7,-1111.63C362.3,-1123.47 329.24,-1141.2 304.11,-1153.81"/>
<polygon fill="black" stroke="black" points="302.31,-1150.79 294.91,-1158.37 305.42,-1157.06 302.31,-1150.79"/>
</g>
<!-- ft&#45;&gt;qn -->
<g id="edge100" class="edge">
<title>ft&#45;&gt;qn</title>
<path fill="none" stroke="black" d="M377.7,-1088.42C344.86,-1076.32 284.7,-1054.15 246.34,-1040.02"/>
<polygon fill="black" stroke="black" points="247.21,-1036.61 236.61,-1036.44 244.79,-1043.18 247.21,-1036.61"/>
</g>
<!-- fs&#45;&gt;zz -->
<g id="edge102" class="edge">
<title>fs&#45;&gt;zz</title>
<path fill="none" stroke="black" d="M821.56,-539.96C826.8,-566.5 836,-619.52 836,-665 836,-811 836,-811 836,-811 836,-857.88 803.4,-904.26 780.91,-930.69"/>
<polygon fill="black" stroke="black" points="778.26,-928.4 774.3,-938.23 783.52,-933.02 778.26,-928.4"/>
</g>
<!-- fs&#45;&gt;lh -->
<g id="edge103" class="edge">
<title>fs&#45;&gt;lh</title>
<path fill="none" stroke="black" d="M826.58,-504.76C831,-496.4 836.49,-486.02 841.47,-476.61"/>
<polygon fill="black" stroke="black" points="844.63,-478.11 846.21,-467.63 838.44,-474.84 844.63,-478.11"/>
</g>
<!-- kd&#45;&gt;rn -->
<g id="edge108" class="edge">
<title>kd&#45;&gt;rn</title>
<path fill="none" stroke="black" d="M1664.91,-237.88C1629.44,-242.7 1570.44,-255.35 1532,-288 1498.06,-316.82 1486,-332.47 1486,-377 1486,-739 1486,-739 1486,-739 1486,-853.34 1665.47,-875.78 1747.71,-880.06"/>
<polygon fill="black" stroke="black" points="1747.79,-883.57 1757.94,-880.52 1748.11,-876.57 1747.79,-883.57"/>
</g>
<!-- kd&#45;&gt;qv -->
<g id="edge107" class="edge">
<title>kd&#45;&gt;qv</title>
<path fill="none" stroke="black" d="M1706.26,-251.2C1722.87,-276.71 1752,-328.39 1752,-377 1752,-523 1752,-523 1752,-523 1752,-563.44 1743.56,-609.67 1737.38,-638.1"/>
<polygon fill="black" stroke="black" points="1733.92,-637.55 1735.15,-648.07 1740.75,-639.08 1733.92,-637.55"/>
</g>
<!-- kd&#45;&gt;qm -->
<g id="edge104" class="edge">
<title>kd&#45;&gt;qm</title>
<path fill="none" stroke="black" d="M1724.59,-239.11C1786.27,-250.1 1922,-285.76 1922,-377 1922,-955 1922,-955 1922,-955 1922,-997.02 1907.37,-1044.05 1894.6,-1072.06"/>
<polygon fill="black" stroke="black" points="1891.41,-1070.61 1890.19,-1081.13 1897.71,-1073.67 1891.41,-1070.61"/>
</g>
<!-- kd&#45;&gt;ml -->
<g id="edge105" class="edge">
<title>kd&#45;&gt;ml</title>
<path fill="none" stroke="black" d="M1717.86,-246.13C1755.89,-266.43 1828,-313.33 1828,-377 1828,-667 1828,-667 1828,-667 1828,-708.74 1811.79,-754.89 1800,-782.92"/>
<polygon fill="black" stroke="black" points="1796.67,-781.81 1795.9,-792.38 1803.09,-784.6 1796.67,-781.81"/>
</g>
<!-- ts -->
<g id="node57" class="node">
<title>ts</title>
<ellipse fill="none" stroke="black" cx="1561" cy="-162" rx="27.9" ry="18"/>
<text text-anchor="middle" x="1561" y="-158.3" font-family="Times,serif" font-size="14.00">&amp;ts</text>
</g>
<!-- kd&#45;&gt;ts -->
<g id="edge106" class="edge">
<title>kd&#45;&gt;ts</title>
<path fill="none" stroke="black" d="M1672.87,-221.44C1650.59,-209.8 1616.06,-191.76 1591.26,-178.81"/>
<polygon fill="black" stroke="black" points="1592.76,-175.64 1582.27,-174.11 1589.52,-181.85 1592.76,-175.64"/>
</g>
<!-- ts&#45;&gt;cl -->
<g id="edge109" class="edge">
<title>ts&#45;&gt;cl</title>
<path fill="none" stroke="black" d="M1534.43,-156.41C1463.94,-144.22 1272.16,-111.08 1191.99,-97.22"/>
<polygon fill="black" stroke="black" points="1192.33,-93.73 1181.88,-95.47 1191.14,-100.63 1192.33,-93.73"/>
</g>
<!-- broadcaster -->
<g id="node58" class="node">
<title>broadcaster</title>
<ellipse fill="none" stroke="black" cx="970" cy="-1170" rx="66.09" ry="18"/>
<text text-anchor="middle" x="970" y="-1166.3" font-family="Times,serif" font-size="14.00">broadcaster</text>
</g>
<!-- broadcaster&#45;&gt;qm -->
<g id="edge6" class="edge">
<title>broadcaster&#45;&gt;qm</title>
<path fill="none" stroke="black" d="M1032.77,-1164.16C1205.65,-1150.83 1685.71,-1113.82 1833.87,-1102.4"/>
<polygon fill="black" stroke="black" points="1834.26,-1105.88 1843.96,-1101.62 1833.72,-1098.9 1834.26,-1105.88"/>
</g>
<!-- broadcaster&#45;&gt;hr -->
<g id="edge4" class="edge">
<title>broadcaster&#45;&gt;hr</title>
<path fill="none" stroke="black" d="M929.51,-1155.5C890.62,-1142.54 832.44,-1123.15 795.37,-1110.79"/>
<polygon fill="black" stroke="black" points="796.09,-1107.34 785.5,-1107.5 793.88,-1113.98 796.09,-1107.34"/>
</g>
<!-- broadcaster&#45;&gt;ct -->
<g id="edge3" class="edge">
<title>broadcaster&#45;&gt;ct</title>
<path fill="none" stroke="black" d="M1002.91,-1154.33C1029.98,-1142.26 1068.11,-1125.25 1094.94,-1113.29"/>
<polygon fill="black" stroke="black" points="1096.57,-1116.4 1104.28,-1109.13 1093.72,-1110.01 1096.57,-1116.4"/>
</g>
<!-- broadcaster&#45;&gt;ft -->
<g id="edge5" class="edge">
<title>broadcaster&#45;&gt;ft</title>
<path fill="none" stroke="black" d="M910.98,-1161.74C793.43,-1147.28 533.12,-1115.25 437.31,-1103.47"/>
<polygon fill="black" stroke="black" points="437.6,-1099.98 427.25,-1102.23 436.74,-1106.92 437.6,-1099.98"/>
</g>
</g>
</svg>
